<?xml version="1.0" standalone="no"?>
<svg
  width="600"
  height="600"
  viewBox="0 0 600 600"
  xmlns="http://www.w3.org/2000/svg"
>
  <g transform="translate(300,300)">
    <path d="M94.5,-159.2C119,-131.2,133.2,-99.3,140.1,-68.6C147.1,-37.8,146.8,-8.4,140,18.2C133.2,44.8,119.9,68.6,103.6,92.7C87.3,116.9,68,141.4,40.1,160.8C12.1,180.1,-24.5,194.1,-53.2,184.3C-81.8,174.4,-102.5,140.6,-141.5,112.9C-180.4,85.3,-237.7,63.9,-241.3,35.1C-244.9,6.3,-194.7,-29.9,-162.7,-63.6C-130.7,-97.3,-116.7,-128.6,-92.6,-156.7C-68.5,-184.9,-34.2,-209.9,0.4,-210.5C35,-211.1,69.9,-187.1,94.5,-159.2Z" fill="#000db8" />
  </g>
</svg>
  