<?xml version="1.0" standalone="no"?>
<!DOCTYPE svg PUBLIC "-//W3C//DTD SVG 20010904//EN"
 "http://www.w3.org/TR/2001/REC-SVG-20010904/DTD/svg10.dtd">
<svg version="1.0" xmlns="http://www.w3.org/2000/svg"
 width="128.000000pt" height="128.000000pt" viewBox="0 0 128.000000 128.000000"
 preserveAspectRatio="xMidYMid meet">
<metadata>
Created by potrace 1.11, written by Peter Selinger 2001-2013
</metadata>
<g transform="translate(0.000000,128.000000) scale(0.100000,-0.100000)"
fill="#000000" stroke="none">
<path d="M546 1271 c-3 -5 1 -14 8 -20 38 -32 35 -100 -6 -141 -8 -8 -35 -41
-61 -73 -70 -87 -61 -148 27 -177 48 -16 61 -5 35 30 -40 53 -27 86 76 208 68
80 61 134 -22 168 -38 16 -50 17 -57 5z"/>
<path d="M716 1271 c-3 -5 1 -14 8 -20 38 -32 35 -100 -6 -141 -8 -8 -35 -41
-61 -73 -68 -84 -63 -139 16 -172 50 -21 66 -19 60 5 -3 11 -9 20 -13 20 -5 0
-12 13 -18 28 -12 36 2 72 55 132 69 80 83 102 83 134 -1 40 -18 62 -63 81
-42 17 -54 18 -61 6z"/>
<path d="M419 1096 c-2 -2 -26 -6 -54 -9 -184 -19 -365 -114 -365 -192 0 -51
75 -112 185 -150 55 -18 66 -21 140 -35 28 -5 64 -12 80 -15 108 -21 449 -9
585 19 47 10 154 47 189 66 36 19 90 65 92 78 0 4 3 19 5 34 5 33 -41 90 -95
117 -91 46 -315 99 -338 79 -7 -6 -10 -15 -7 -20 3 -5 8 -7 10 -5 3 3 24 0 47
-5 23 -5 52 -12 65 -14 45 -9 118 -36 159 -60 107 -62 95 -134 -30 -193 -110
-51 -255 -76 -447 -76 -199 1 -335 24 -447 76 -158 74 -133 167 62 234 58 20
72 23 177 39 33 5 48 14 48 27 0 8 -52 13 -61 5z"/>
<path d="M758 989 l-27 -41 27 -48 c27 -48 27 -48 7 -70 -16 -18 -27 -21 -58
-16 -22 4 -53 14 -69 22 -28 15 -31 14 -45 -5 -8 -12 -21 -21 -30 -21 -39 0
-99 27 -131 58 -30 30 -33 39 -30 76 3 22 8 49 13 59 7 17 4 18 -31 13 -101
-16 -204 -57 -238 -95 -29 -32 -7 -63 66 -96 179 -80 550 -95 773 -30 76 22
153 63 160 86 15 46 -69 95 -222 129 -127 28 -134 27 -165 -21z"/>
<path d="M10 779 c0 -11 31 -43 319 -319 117 -113 226 -213 242 -223 60 -39
134 -22 195 44 17 19 104 104 194 189 229 216 310 297 310 309 0 6 -21 -3 -47
-19 -125 -76 -314 -113 -583 -113 -269 -1 -457 36 -582 113 -27 16 -48 25 -48
19z"/>
<path d="M248 385 c-130 -32 -248 -111 -248 -166 0 -26 17 -58 44 -82 49 -43
192 -96 301 -112 23 -3 52 -8 65 -11 45 -10 354 -12 425 -3 192 24 341 72 403
129 17 17 32 34 33 38 0 4 3 19 5 34 6 33 -41 90 -95 117 -50 25 -157 61 -200
67 -35 5 -41 1 -141 -96 -111 -106 -160 -133 -225 -123 -48 8 -75 26 -179 127
-55 53 -106 96 -115 95 -9 0 -42 -7 -73 -14z"/>
</g>
</svg>
